<svg xmlns="http://www.w3.org/2000/svg" width="15.393" height="18.785" viewBox="0 0 15.393 18.785">
  <g id="Component_3_1" data-name="Component 3 – 1" transform="translate(0.765 0.75)">
    <path id="Path_11715" data-name="Path 11715" d="M7.019,0a6.842,6.842,0,0,1,6.674,5.268A6.19,6.19,0,0,1,13,9.926a32.285,32.285,0,0,1-4.972,6.527c-.173.179-.334.368-.5.554a.734.734,0,0,1-1.113.041,51.746,51.746,0,0,1-3.595-4.162A19.391,19.391,0,0,1,.564,9.219a6.19,6.19,0,0,1,1-6.694A6.839,6.839,0,0,1,7.019,0m.055,4.247A2.473,2.473,0,0,0,7.06,9.192,2.526,2.526,0,0,0,9.553,6.7a2.475,2.475,0,0,0-2.48-2.456" transform="translate(0 0.001)" fill="none" stroke="#8d8d8d" stroke-width="1.5"/>
  </g>
</svg>
