<svg id="Component_1_1" data-name="Component 1 – 1" xmlns="http://www.w3.org/2000/svg" width="151.795" height="117.534" viewBox="0 0 151.795 117.534">
  <g id="Group_2230" data-name="Group 2230" transform="translate(-3394.873 -13460.569)">
    <path id="Path_11703" data-name="Path 11703" d="M135.981,67.418a35.245,35.245,0,0,1-18.6,31.073,12.132,12.132,0,0,0-6.96,2.114A17.549,17.549,0,0,0,85.068,82.117a23.671,23.671,0,0,0-18.7-22.572,35.251,35.251,0,0,1,69.612,7.873" transform="translate(3383.858 13455.23)" fill="#fcbb32"/>
    <path id="Path_11704" data-name="Path 11704" d="M107.236,19.136a1.668,1.668,0,0,1-1.668-1.668V1.669a1.668,1.668,0,0,1,3.336,0v15.8a1.668,1.668,0,0,1-1.668,1.668" transform="translate(3377.353 13460.568)" fill="#fcbb32"/>
    <path id="Path_11705" data-name="Path 11705" d="M84.723,24.1l-2.512-6.055a1.668,1.668,0,1,1,3.082-1.278L87.8,22.823A1.668,1.668,0,0,1,84.723,24.1" transform="translate(3381.25 13457.957)" fill="#fcbb32"/>
    <path id="Path_11706" data-name="Path 11706" d="M55.969,54.669l-6.056-2.512a1.668,1.668,0,1,1,1.278-3.081l6.056,2.512a1.668,1.668,0,1,1-1.278,3.081" transform="translate(3386.76 13452.445)" fill="#fcbb32"/>
    <path id="Path_11707" data-name="Path 11707" d="M162.078,98.618l-6.055-2.5a1.668,1.668,0,0,1,1.274-3.083l6.055,2.5a1.668,1.668,0,1,1-1.274,3.083" transform="translate(3369.15 13445.15)" fill="#fcbb32"/>
    <path id="Path_11708" data-name="Path 11708" d="M155.12,53.766a1.668,1.668,0,0,1,.9-2.179l6.055-2.512a1.668,1.668,0,1,1,1.279,3.081L157.3,54.668a1.667,1.667,0,0,1-2.179-.9" transform="translate(3369.15 13452.445)" fill="#fcbb32"/>
    <path id="Path_11709" data-name="Path 11709" d="M127.07,25a1.668,1.668,0,0,1-.9-2.179l2.512-6.055a1.668,1.668,0,1,1,3.081,1.278L129.25,24.1a1.667,1.667,0,0,1-2.179.9" transform="translate(3373.955 13457.957)" fill="#fcbb32"/>
    <path id="Path_11710" data-name="Path 11710" d="M66.011,35.233,54.839,24.06A1.668,1.668,0,1,1,57.2,21.7L68.369,32.875a1.668,1.668,0,0,1-2.359,2.359" transform="translate(3385.853 13457.048)" fill="#fcbb32"/>
    <path id="Path_11711" data-name="Path 11711" d="M155.053,124.267,143.88,113.1a1.67,1.67,0,1,1,2.445-2.274l11.086,11.078a1.668,1.668,0,0,1-2.358,2.359" transform="translate(3371.075 13442.271)" fill="#fcbb32"/>
    <path id="Path_11712" data-name="Path 11712" d="M176.524,75.768h-15.8a1.668,1.668,0,0,1,0-3.336h15.8a1.668,1.668,0,1,1,0,3.336" transform="translate(3368.475 13448.548)" fill="#fcbb32"/>
    <path id="Path_11713" data-name="Path 11713" d="M143.88,35.233a1.668,1.668,0,0,1,0-2.359L155.052,21.7a1.668,1.668,0,0,1,2.36,2.359L146.238,35.233a1.668,1.668,0,0,1-2.359,0" transform="translate(3371.075 13457.048)" fill="#fcbb32"/>
  </g>
  <path id="Path_11714" data-name="Path 11714" d="M99.408,105.948A17.549,17.549,0,0,0,74.054,87.46a23.672,23.672,0,0,0-23.664-23.1c-13.934,0-24.522,12-23.647,24.814a20.087,20.087,0,1,0-6.656,39.039h86.19a12.194,12.194,0,1,0-6.867-22.268" transform="translate(0 -10.683)" fill="#9cf"/>
</svg>
